<?xml version="1.0" encoding="UTF-8" standalone="no"?>
<!DOCTYPE svg PUBLIC "-//W3C//DTD SVG 1.1//EN" "http://www.w3.org/Graphics/SVG/1.1/DTD/svg11.dtd">
<svg xmlns="http://www.w3.org/2000/svg" version="1.1" viewBox="0 0 512 512">
<path fill="#000000" d="
  M 383.24 220.96
  Q 387.89 221.04 392.55 221.00
  C 395.13 220.97 397.76 221.94 397.76 224.75
  Q 397.71 245.25 397.79 265.75
  A 1.01 1.00 89.7 0 0 398.79 266.75
  L 506.94 266.75
  Q 510.00 266.75 510.00 270.25
  Q 510.00 361.75 510.00 453.25
  C 510.00 456.09 507.72 457.25 505.04 457.25
  Q 255.14 457.25 5.25 457.25
  Q 2.01 457.25 2.01 453.94
  Q 1.99 362.80 2.01 271.66
  C 2.01 269.49 3.27 266.75 5.50 266.75
  Q 55.62 266.75 105.75 266.75
  A 1.00 1.00 0.0 0 0 106.75 265.75
  L 106.75 224.50
  Q 106.75 221.03 109.81 221.02
  L 123.52 220.99
  A 1.00 1.00 0.0 0 0 124.52 219.99
  L 124.51 202.81
  Q 124.50 199.51 127.31 199.51
  L 202.49 199.50
  A 1.00 1.00 0.0 0 0 203.49 198.50
  L 203.51 165.31
  A 0.97 0.96 64.0 0 1 203.71 164.72
  L 249.00 102.97
  A 1.05 1.00 -28.7 0 0 249.19 102.38
  Q 249.30 80.92 249.24 59.46
  C 249.23 52.57 258.53 52.82 256.99 61.72
  A 1.00 1.00 0.0 0 0 258.00 62.89
  Q 272.16 62.62 287.50 62.75
  Q 290.40 62.77 292.77 63.14
  Q 295.70 63.59 295.72 66.55
  Q 295.79 77.03 295.74 87.50
  C 295.72 90.79 293.46 92.00 290.34 92.00
  Q 274.31 92.00 258.25 92.00
  A 1.00 1.00 0.0 0 0 257.25 93.00
  L 257.25 102.31
  A 1.00 0.99 26.3 0 0 257.46 102.92
  L 305.55 164.80
  A 1.04 0.97 27.6 0 1 305.77 165.42
  L 305.72 198.50
  A 1.00 1.00 0.0 0 0 306.72 199.50
  L 379.44 199.51
  Q 382.22 199.51 382.23 203.06
  L 382.26 219.96
  A 1.00 1.00 0.0 0 0 383.24 220.96
  Z
  M 287.7289 71.3268
  A 0.58 0.58 0.0 0 0 287.1469 70.7488
  L 257.8071 70.8512
  A 0.58 0.58 0.0 0 0 257.2291 71.4333
  L 257.2711 83.4732
  A 0.58 0.58 0.0 0 0 257.8531 84.0512
  L 287.1929 83.9488
  A 0.58 0.58 0.0 0 0 287.7709 83.3667
  L 287.7289 71.3268
  Z
  M 253.63 110.99
  A 0.35 0.35 0.0 0 0 253.07 111.00
  L 215.53 162.19
  A 0.35 0.35 0.0 0 0 215.81 162.75
  L 292.69 162.75
  A 0.35 0.35 0.0 0 0 292.97 162.19
  L 253.63 110.99
  Z
  M 212.25 170.75
  A 1.00 1.00 0.0 0 0 211.25 171.75
  L 211.25 402.24
  A 1.00 1.00 0.0 0 0 212.25 403.24
  L 224.33 403.22
  A 1.01 1.00 -0.8 0 0 225.33 402.20
  Q 225.09 387.60 225.39 373.63
  Q 225.61 363.10 227.38 357.96
  C 236.86 330.39 273.79 331.42 282.18 359.30
  Q 283.72 364.43 283.74 377.90
  Q 283.76 390.03 283.76 402.23
  A 1.00 1.00 0.0 0 0 284.76 403.23
  L 296.75 403.23
  A 1.00 1.00 0.0 0 0 297.75 402.23
  L 297.75 171.74
  A 1.00 1.00 0.0 0 0 296.75 170.74
  L 212.25 170.75
  Z
  M 203.25 207.96
  A 0.48 0.48 0.0 0 0 202.77 207.48
  L 132.99 207.48
  A 0.48 0.48 0.0 0 0 132.51 207.96
  L 132.51 220.52
  A 0.48 0.48 0.0 0 0 132.99 221.00
  L 202.77 221.00
  A 0.48 0.48 0.0 0 0 203.25 220.52
  L 203.25 207.96
  Z
  M 374.24 208.03
  A 0.54 0.54 0.0 0 0 373.70 207.49
  L 306.26 207.49
  A 0.54 0.54 0.0 0 0 305.72 208.03
  L 305.72 220.45
  A 0.54 0.54 0.0 0 0 306.26 220.99
  L 373.70 220.99
  A 0.54 0.54 0.0 0 0 374.24 220.45
  L 374.24 208.03
  Z
  M 203.28 229.60
  A 0.60 0.60 0.0 0 0 202.68 229.00
  L 115.36 229.00
  A 0.60 0.60 0.0 0 0 114.76 229.60
  L 114.76 242.62
  A 0.60 0.60 0.0 0 0 115.36 243.22
  L 202.68 243.22
  A 0.60 0.60 0.0 0 0 203.28 242.62
  L 203.28 229.60
  Z
  M 389.74 229.48
  A 0.48 0.48 0.0 0 0 389.26 229.00
  L 306.24 229.00
  A 0.48 0.48 0.0 0 0 305.76 229.48
  L 305.76 242.76
  A 0.48 0.48 0.0 0 0 306.24 243.24
  L 389.26 243.24
  A 0.48 0.48 0.0 0 0 389.74 242.76
  L 389.74 229.48
  Z
  M 203.25 251.51
  A 0.27 0.27 0.0 0 0 202.98 251.24
  L 115.02 251.24
  A 0.27 0.27 0.0 0 0 114.75 251.51
  L 114.75 402.95
  A 0.27 0.27 0.0 0 0 115.02 403.22
  L 202.98 403.22
  A 0.27 0.27 0.0 0 0 203.25 402.95
  L 203.25 251.51
  Z
  M 305.75 402.72
  A 0.53 0.53 0.0 0 0 306.28 403.25
  L 389.22 403.25
  A 0.53 0.53 0.0 0 0 389.75 402.72
  L 389.75 251.77
  A 0.53 0.53 0.0 0 0 389.22 251.24
  L 306.28 251.24
  A 0.53 0.53 0.0 0 0 305.75 251.77
  L 305.75 402.72
  Z
  M 105.79 403.06
  A 1.00 1.00 0.0 0 0 106.75 402.06
  L 106.75 275.75
  A 1.00 1.00 0.0 0 0 105.75 274.75
  L 11.00 274.75
  A 1.00 1.00 0.0 0 0 10.00 275.75
  L 10.00 448.52
  A 1.00 1.00 0.0 0 0 11.00 449.52
  L 61.13 449.49
  A 1.00 0.99 0.6 0 0 62.13 448.52
  Q 62.37 439.76 62.23 431.00
  C 62.18 428.41 64.70 427.23 67.16 427.24
  Q 74.91 427.28 82.67 427.23
  A 1.00 1.00 0.0 0 0 83.67 426.25
  Q 83.81 417.39 83.74 408.25
  C 83.71 404.69 85.01 403.19 88.70 403.25
  Q 97.05 403.37 105.79 403.06
  Z
  M 423.68 403.01
  Q 426.76 403.01 426.76 406.25
  L 426.75 425.84
  A 1.00 1.00 0.0 0 0 427.71 426.84
  Q 435.30 427.14 442.91 426.99
  C 445.93 426.93 448.27 428.02 448.25 431.26
  Q 448.21 439.71 448.30 448.26
  A 1.00 1.00 0.0 0 0 449.30 449.25
  L 501.00 449.26
  A 1.00 1.00 0.0 0 0 502.00 448.26
  L 502.00 275.75
  A 1.00 1.00 0.0 0 0 501.00 274.75
  L 398.75 274.75
  A 1.00 1.00 0.0 0 0 397.75 275.75
  L 397.75 402.00
  A 1.00 0.99 -0.0 0 0 398.75 402.99
  L 423.68 403.01
  Z
  M 274.74 403.21
  A 1.01 1.01 0.0 0 0 275.74 402.21
  Q 275.80 384.90 275.70 367.31
  Q 275.67 362.26 272.79 357.17
  C 261.34 336.92 234.01 346.01 233.50 367.25
  Q 233.09 384.70 233.29 402.28
  A 1.00 1.00 0.0 0 0 234.29 403.27
  L 274.74 403.21
  Z
  M 315.44 434.66
  C 311.82 430.56 313.86 426.99 318.80 426.99
  Q 368.24 427.03 417.73 426.97
  A 1.00 1.00 0.0 0 0 418.73 425.98
  L 418.81 412.01
  A 1.01 1.00 90.0 0 0 417.81 411.00
  L 92.70 411.00
  A 1.00 0.99 -0.3 0 0 91.70 412.00
  L 91.72 426.00
  A 1.00 1.00 0.0 0 0 92.72 427.00
  L 129.00 427.00
  Q 132.38 427.00 132.48 430.26
  C 132.61 434.37 130.02 435.01 126.42 435.01
  Q 98.87 434.96 71.25 435.04
  A 1.01 1.00 -0.3 0 0 70.25 436.04
  L 70.25 448.25
  A 1.00 1.00 0.0 0 0 71.25 449.25
  L 439.24 449.25
  A 1.00 1.00 0.0 0 0 440.24 448.25
  L 440.26 436.00
  A 1.01 1.00 90.0 0 0 439.26 434.99
  L 316.19 435.00
  A 1.01 1.00 69.1 0 1 315.44 434.66
  Z"
/>
<rect fill="#000000" x="-4.01" y="-14.04" transform="translate(261.39,139.26) rotate(-38.0)" width="8.02" height="28.08" rx="3.90"/>
<rect fill="#000000" x="-3.95" y="-8.53" transform="translate(245.66,147.14) rotate(-38.2)" width="7.90" height="17.06" rx="3.75"/>
<path fill="#000000" d="
  M 282.32 210.19
  A 27.93 27.93 0.0 0 1 254.39 238.12
  A 27.93 27.93 0.0 0 1 226.46 210.19
  A 27.93 27.93 0.0 0 1 254.39 182.26
  A 27.93 27.93 0.0 0 1 282.32 210.19
  Z
  M 274.30 210.18
  A 19.92 19.92 0.0 0 0 254.38 190.26
  A 19.92 19.92 0.0 0 0 234.46 210.18
  A 19.92 19.92 0.0 0 0 254.38 230.10
  A 19.92 19.92 0.0 0 0 274.30 210.18
  Z"
/>
<path fill="#000000" d="
  M 258.53 208.58
  L 263.06 213.21
  Q 265.35 215.55 264.12 217.83
  C 260.50 224.53 253.45 214.82 250.81 212.18
  A 1.03 1.03 0.0 0 1 250.51 211.48
  Q 250.47 204.73 250.53 198.00
  C 250.56 194.10 258.11 193.31 258.49 198.91
  Q 258.79 203.36 258.25 207.75
  A 1.02 1.01 26.7 0 0 258.53 208.58
  Z"
/>
<rect fill="#000000" x="226.34" y="257.29" width="33.88" height="7.96" rx="3.88"/>
<rect fill="#000000" x="-8.21" y="-3.97" transform="translate(278.28,261.28) rotate(-0.1)" width="16.42" height="7.94" rx="3.77"/>
<path fill="#000000" d="
  M 154.2319 291.7454
  A 4.27 4.27 0.0 0 1 149.9545 296.0080
  L 129.3145 295.9720
  A 4.27 4.27 0.0 0 1 125.0520 291.6945
  L 125.0881 270.9946
  A 4.27 4.27 0.0 0 1 129.3655 266.7320
  L 150.0055 266.7680
  A 4.27 4.27 0.0 0 1 154.2680 271.0455
  L 154.2319 291.7454
  Z
  M 146.24 275.19
  A 0.43 0.43 0.0 0 0 145.81 274.76
  L 133.61 274.76
  A 0.43 0.43 0.0 0 0 133.18 275.19
  L 133.18 287.33
  A 0.43 0.43 0.0 0 0 133.61 287.76
  L 145.81 287.76
  A 0.43 0.43 0.0 0 0 146.24 287.33
  L 146.24 275.19
  Z"
/>
<path fill="#000000" d="
  M 192.9916 291.9053
  A 4.12 4.12 0.0 0 1 188.8645 296.0181
  L 168.1045 295.9819
  A 4.12 4.12 0.0 0 1 163.9917 291.8547
  L 164.0284 270.8347
  A 4.12 4.12 0.0 0 1 168.1555 266.7219
  L 188.9155 266.7581
  A 4.12 4.12 0.0 0 1 193.0283 270.8853
  L 192.9916 291.9053
  Z
  M 184.9796 275.2687
  A 0.54 0.54 0.0 0 0 184.4386 274.7296
  L 172.5386 274.7504
  A 0.54 0.54 0.0 0 0 171.9996 275.2913
  L 172.0204 287.2513
  A 0.54 0.54 0.0 0 0 172.5614 287.7904
  L 184.4614 287.7696
  A 0.54 0.54 0.0 0 0 185.0004 287.2287
  L 184.9796 275.2687
  Z"
/>
<path fill="#000000" d="
  M 342.7321 291.6355
  A 4.39 4.39 0.0 0 1 338.3345 296.0178
  L 317.8745 295.9821
  A 4.39 4.39 0.0 0 1 313.4922 291.5845
  L 313.5279 271.1045
  A 4.39 4.39 0.0 0 1 317.9255 266.7222
  L 338.3855 266.7579
  A 4.39 4.39 0.0 0 1 342.7678 271.1555
  L 342.7321 291.6355
  Z
  M 334.7297 275.5985
  A 0.65 0.65 0.0 0 0 334.0786 274.9496
  L 322.1586 274.9704
  A 0.65 0.65 0.0 0 0 321.5098 275.6215
  L 321.5303 287.3615
  A 0.65 0.65 0.0 0 0 322.1814 288.0104
  L 334.1014 287.9896
  A 0.65 0.65 0.0 0 0 334.7502 287.3385
  L 334.7297 275.5985
  Z"
/>
<path fill="#000000" d="
  M 381.5078 291.5545
  A 4.42 4.42 0.0 0 1 377.0955 295.9822
  L 356.6955 296.0178
  A 4.42 4.42 0.0 0 1 352.2678 291.6055
  L 352.2322 271.1855
  A 4.42 4.42 0.0 0 1 356.6445 266.7578
  L 377.0445 266.7222
  A 4.42 4.42 0.0 0 1 381.4722 271.1345
  L 381.5078 291.5545
  Z
  M 373.4684 275.4455
  A 0.50 0.50 0.0 0 0 372.9658 274.9481
  L 360.7460 275.0121
  A 0.50 0.50 0.0 0 0 360.2486 275.5147
  L 360.3116 287.5345
  A 0.50 0.50 0.0 0 0 360.8142 288.0319
  L 373.0340 287.9679
  A 0.50 0.50 0.0 0 0 373.5314 287.4653
  L 373.4684 275.4455
  Z"
/>
<rect fill="#000000" x="215.46" y="276.00" width="37.48" height="8.00" rx="3.89"/>
<rect fill="#000000" x="263.74" y="276.00" width="28.20" height="8.00" rx="3.87"/>
<path fill="#000000" d="
  M 54.7321 315.6455
  A 4.38 4.38 0.0 0 1 50.3445 320.0178
  L 29.8645 319.9821
  A 4.38 4.38 0.0 0 1 25.4921 315.5945
  L 25.5279 295.0945
  A 4.38 4.38 0.0 0 1 29.9155 290.7222
  L 50.3955 290.7579
  A 4.38 4.38 0.0 0 1 54.7679 295.1455
  L 54.7321 315.6455
  Z
  M 46.7396 299.2985
  A 0.56 0.56 0.0 0 0 46.1786 298.7395
  L 34.0787 298.7606
  A 0.56 0.56 0.0 0 0 33.5196 299.3215
  L 33.5404 311.2015
  A 0.56 0.56 0.0 0 0 34.1014 311.7605
  L 46.2013 311.7394
  A 0.56 0.56 0.0 0 0 46.7604 311.1785
  L 46.7396 299.2985
  Z"
/>
<path fill="#000000" d="
  M 93.5078 315.5445
  A 4.43 4.43 0.0 0 1 89.0855 319.9822
  L 68.7055 320.0178
  A 4.43 4.43 0.0 0 1 64.2678 315.5955
  L 64.2322 295.1955
  A 4.43 4.43 0.0 0 1 68.6545 290.7578
  L 89.0345 290.7222
  A 4.43 4.43 0.0 0 1 93.4722 295.1445
  L 93.5078 315.5445
  Z
  M 85.4690 299.4570
  A 0.50 0.50 0.0 0 0 84.9672 298.9587
  L 72.7473 299.0014
  A 0.50 0.50 0.0 0 0 72.2491 299.5031
  L 72.2910 311.5230
  A 0.50 0.50 0.0 0 0 72.7928 312.0213
  L 85.0127 311.9786
  A 0.50 0.50 0.0 0 0 85.5109 311.4769
  L 85.4690 299.4570
  Z"
/>
<path fill="#000000" d="
  M 446.7679 315.6145
  A 4.36 4.36 0.0 0 1 442.4155 319.9821
  L 421.8955 320.0179
  A 4.36 4.36 0.0 0 1 417.5279 315.6655
  L 417.4921 295.1255
  A 4.36 4.36 0.0 0 1 421.8445 290.7579
  L 442.3645 290.7221
  A 4.36 4.36 0.0 0 1 446.7321 295.0745
  L 446.7679 315.6145
  Z
  M 438.7297 299.5985
  A 0.65 0.65 0.0 0 0 438.0786 298.9496
  L 426.1586 298.9704
  A 0.65 0.65 0.0 0 0 425.5098 299.6215
  L 425.5303 311.3615
  A 0.65 0.65 0.0 0 0 426.1814 312.0104
  L 438.1014 311.9896
  A 0.65 0.65 0.0 0 0 438.7502 311.3385
  L 438.7297 299.5985
  Z"
/>
<path fill="#000000" d="
  M 485.4722 315.6055
  A 4.42 4.42 0.0 0 1 481.0445 320.0178
  L 460.6445 319.9822
  A 4.42 4.42 0.0 0 1 456.2322 315.5545
  L 456.2678 295.1345
  A 4.42 4.42 0.0 0 1 460.6955 290.7222
  L 481.0955 290.7578
  A 4.42 4.42 0.0 0 1 485.5078 295.1855
  L 485.4722 315.6055
  Z
  M 477.4684 299.4455
  A 0.50 0.50 0.0 0 0 476.9658 298.9481
  L 464.7460 299.0121
  A 0.50 0.50 0.0 0 0 464.2486 299.5147
  L 464.3116 311.5345
  A 0.50 0.50 0.0 0 0 464.8142 312.0319
  L 477.0340 311.9679
  A 0.50 0.50 0.0 0 0 477.5314 311.4653
  L 477.4684 299.4455
  Z"
/>
<rect fill="#000000" x="233.08" y="293.78" width="34.40" height="8.10" rx="3.91"/>
<ellipse fill="#000000" cx="285.26" cy="297.86" rx="4.37" ry="4.04"/>
<path fill="#000000" d="
  M 154.2321 338.0355
  A 4.24 4.24 0.0 0 1 149.9847 342.2681
  L 129.2647 342.2319
  A 4.24 4.24 0.0 0 1 125.0321 337.9845
  L 125.0679 317.4645
  A 4.24 4.24 0.0 0 1 129.3153 313.2319
  L 150.0353 313.2681
  A 4.24 4.24 0.0 0 1 154.2679 317.5155
  L 154.2321 338.0355
  Z
  M 146.2405 321.7614
  A 0.49 0.49 0.0 0 0 145.7513 321.2705
  L 133.6914 321.2495
  A 0.49 0.49 0.0 0 0 133.2005 321.7386
  L 133.1795 333.7586
  A 0.49 0.49 0.0 0 0 133.6687 334.2495
  L 145.7286 334.2705
  A 0.49 0.49 0.0 0 0 146.2195 333.7814
  L 146.2405 321.7614
  Z"
/>
<path fill="#000000" d="
  M 193.0283 338.1947
  A 4.03 4.03 0.0 0 1 189.0053 342.2317
  L 168.0653 342.2683
  A 4.03 4.03 0.0 0 1 164.0283 338.2453
  L 163.9917 317.3053
  A 4.03 4.03 0.0 0 1 168.0147 313.2683
  L 188.9547 313.2317
  A 4.03 4.03 0.0 0 1 192.9917 317.2547
  L 193.0283 338.1947
  Z
  M 185.0104 321.8114
  A 0.55 0.55 0.0 0 0 184.4614 321.2604
  L 172.5614 321.2396
  A 0.55 0.55 0.0 0 0 172.0104 321.7887
  L 171.9896 333.7286
  A 0.55 0.55 0.0 0 0 172.5386 334.2796
  L 184.4386 334.3004
  A 0.55 0.55 0.0 0 0 184.9896 333.7513
  L 185.0104 321.8114
  Z"
/>
<path fill="#000000" d="
  M 342.7143 338.0110
  A 4.31 4.31 0.0 0 1 338.3893 342.3059
  L 317.7694 342.2339
  A 4.31 4.31 0.0 0 1 313.4745 337.9089
  L 313.5457 317.5090
  A 4.31 4.31 0.0 0 1 317.8707 313.2141
  L 338.4906 313.2861
  A 4.31 4.31 0.0 0 1 342.7855 317.6111
  L 342.7143 338.0110
  Z
  M 334.7503 321.8716
  A 0.62 0.62 0.0 0 0 334.1314 321.2505
  L 322.1314 321.2295
  A 0.62 0.62 0.0 0 0 321.5103 321.8485
  L 321.4897 333.6484
  A 0.62 0.62 0.0 0 0 322.1086 334.2695
  L 334.1086 334.2905
  A 0.62 0.62 0.0 0 0 334.7297 333.6715
  L 334.7503 321.8716
  Z"
/>
<path fill="#000000" d="
  M 381.4880 338.0646
  A 4.17 4.17 0.0 0 1 377.3253 342.2419
  L 356.5653 342.2781
  A 4.17 4.17 0.0 0 1 352.3881 338.1154
  L 352.3520 317.4554
  A 4.17 4.17 0.0 0 1 356.5147 313.2781
  L 377.2747 313.2419
  A 4.17 4.17 0.0 0 1 381.4519 317.4046
  L 381.4880 338.0646
  Z
  M 373.5190 322.2547
  A 0.98 0.98 0.0 0 0 372.5442 321.2696
  L 361.2643 321.2106
  A 0.98 0.98 0.0 0 0 360.2792 322.1854
  L 360.2210 333.3053
  A 0.98 0.98 0.0 0 0 361.1958 334.2904
  L 372.4757 334.3494
  A 0.98 0.98 0.0 0 0 373.4608 333.3746
  L 373.5190 322.2547
  Z"
/>
<path fill="#000000" d="
  M 54.7322 361.9855
  A 4.31 4.31 0.0 0 1 50.4147 366.2880
  L 29.7947 366.2520
  A 4.31 4.31 0.0 0 1 25.4922 361.9345
  L 25.5278 341.5345
  A 4.31 4.31 0.0 0 1 29.8453 337.2320
  L 50.4653 337.2680
  A 4.31 4.31 0.0 0 1 54.7678 341.5855
  L 54.7322 361.9855
  Z
  M 46.7503 345.8716
  A 0.62 0.62 0.0 0 0 46.1314 345.2505
  L 34.1314 345.2295
  A 0.62 0.62 0.0 0 0 33.5103 345.8485
  L 33.4897 357.6484
  A 0.62 0.62 0.0 0 0 34.1086 358.2695
  L 46.1086 358.2905
  A 0.62 0.62 0.0 0 0 46.7297 357.6715
  L 46.7503 345.8716
  Z"
/>
<path fill="#000000" d="
  M 93.5060 362.0491
  A 4.16 4.16 0.0 0 1 89.3606 366.2236
  L 68.5807 366.2962
  A 4.16 4.16 0.0 0 1 64.4062 362.1507
  L 64.3340 341.4709
  A 4.16 4.16 0.0 0 1 68.4794 337.2964
  L 89.2593 337.2238
  A 4.16 4.16 0.0 0 1 93.4338 341.3693
  L 93.5060 362.0491
  Z
  M 85.4995 346.2431
  A 0.97 0.97 0.0 0 0 84.5329 345.2697
  L 73.2729 345.2304
  A 0.97 0.97 0.0 0 0 72.2996 346.1970
  L 72.2605 357.3769
  A 0.97 0.97 0.0 0 0 73.2271 358.3503
  L 84.4871 358.3896
  A 0.97 0.97 0.0 0 0 85.4604 357.4230
  L 85.4995 346.2431
  Z"
/>
<path fill="#000000" d="
  M 446.7143 362.0110
  A 4.31 4.31 0.0 0 1 442.3893 366.3059
  L 421.7694 366.2339
  A 4.31 4.31 0.0 0 1 417.4745 361.9089
  L 417.5457 341.5090
  A 4.31 4.31 0.0 0 1 421.8707 337.2141
  L 442.4906 337.2861
  A 4.31 4.31 0.0 0 1 446.7855 341.6111
  L 446.7143 362.0110
  Z
  M 438.7503 345.8716
  A 0.62 0.62 0.0 0 0 438.1314 345.2505
  L 426.1314 345.2295
  A 0.62 0.62 0.0 0 0 425.5103 345.8485
  L 425.4897 357.6484
  A 0.62 0.62 0.0 0 0 426.1086 358.2695
  L 438.1086 358.2905
  A 0.62 0.62 0.0 0 0 438.7297 357.6715
  L 438.7503 345.8716
  Z"
/>
<path fill="#000000" d="
  M 485.5060 362.0491
  A 4.16 4.16 0.0 0 1 481.3606 366.2236
  L 460.5807 366.2962
  A 4.16 4.16 0.0 0 1 456.4062 362.1507
  L 456.3340 341.4709
  A 4.16 4.16 0.0 0 1 460.4794 337.2964
  L 481.2593 337.2238
  A 4.16 4.16 0.0 0 1 485.4338 341.3693
  L 485.5060 362.0491
  Z
  M 477.4801 346.0785
  A 0.84 0.84 0.0 0 0 476.6386 345.2399
  L 465.0787 345.2601
  A 0.84 0.84 0.0 0 0 464.2401 346.1016
  L 464.2599 357.4215
  A 0.84 0.84 0.0 0 0 465.1014 358.2601
  L 476.6613 358.2399
  A 0.84 0.84 0.0 0 0 477.4999 357.3984
  L 477.4801 346.0785
  Z"
/>
<path fill="#000000" d="
  M 154.2320 384.5954
  A 4.17 4.17 0.0 0 1 150.0547 388.7581
  L 129.2347 388.7218
  A 4.17 4.17 0.0 0 1 125.0720 384.5445
  L 125.1080 363.9046
  A 4.17 4.17 0.0 0 1 129.2853 359.7419
  L 150.1053 359.7782
  A 4.17 4.17 0.0 0 1 154.2680 363.9555
  L 154.2320 384.5954
  Z
  M 146.2709 368.2729
  A 0.50 0.50 0.0 0 0 145.7727 367.7712
  L 133.6528 367.7289
  A 0.50 0.50 0.0 0 0 133.1510 368.2271
  L 133.1091 380.2471
  A 0.50 0.50 0.0 0 0 133.6073 380.7488
  L 145.7272 380.7911
  A 0.50 0.50 0.0 0 0 146.2290 380.2929
  L 146.2709 368.2729
  Z"
/>
<path fill="#000000" d="
  M 192.9917 384.7353
  A 4.04 4.04 0.0 0 1 188.9447 388.7682
  L 168.0247 388.7317
  A 4.04 4.04 0.0 0 1 163.9918 384.6847
  L 164.0283 363.7647
  A 4.04 4.04 0.0 0 1 168.0753 359.7318
  L 188.9953 359.7683
  A 4.04 4.04 0.0 0 1 193.0282 363.8153
  L 192.9917 384.7353
  Z
  M 184.9796 368.2687
  A 0.54 0.54 0.0 0 0 184.4386 367.7296
  L 172.5386 367.7504
  A 0.54 0.54 0.0 0 0 171.9996 368.2913
  L 172.0204 380.2513
  A 0.54 0.54 0.0 0 0 172.5614 380.7904
  L 184.4614 380.7696
  A 0.54 0.54 0.0 0 0 185.0004 380.2287
  L 184.9796 368.2687
  Z"
/>
<path fill="#000000" d="
  M 342.7322 384.4955
  A 4.29 4.29 0.0 0 1 338.4347 388.7780
  L 317.7747 388.7419
  A 4.29 4.29 0.0 0 1 313.4922 384.4445
  L 313.5278 364.0245
  A 4.29 4.29 0.0 0 1 317.8253 359.7420
  L 338.4853 359.7781
  A 4.29 4.29 0.0 0 1 342.7678 364.0755
  L 342.7322 384.4955
  Z
  M 334.7497 368.3384
  A 0.60 0.60 0.0 0 0 334.1486 367.7395
  L 322.0887 367.7605
  A 0.60 0.60 0.0 0 0 321.4897 368.3616
  L 321.5103 380.1616
  A 0.60 0.60 0.0 0 0 322.1114 380.7605
  L 334.1713 380.7395
  A 0.60 0.60 0.0 0 0 334.7703 380.1384
  L 334.7497 368.3384
  Z"
/>
<path fill="#000000" d="
  M 381.4722 384.4355
  A 4.35 4.35 0.0 0 1 377.1147 388.7779
  L 356.5747 388.7421
  A 4.35 4.35 0.0 0 1 352.2323 384.3845
  L 352.2678 364.0645
  A 4.35 4.35 0.0 0 1 356.6253 359.7221
  L 377.1653 359.7579
  A 4.35 4.35 0.0 0 1 381.5077 364.1155
  L 381.4722 384.4355
  Z
  M 373.5101 368.4516
  A 0.69 0.69 0.0 0 0 372.8213 367.7604
  L 360.9614 367.7397
  A 0.69 0.69 0.0 0 0 360.2702 368.4285
  L 360.2499 380.0484
  A 0.69 0.69 0.0 0 0 360.9387 380.7396
  L 372.7986 380.7603
  A 0.69 0.69 0.0 0 0 373.4898 380.0715
  L 373.5101 368.4516
  Z"
/>
<path fill="#000000" d="
  M 54.7322 408.4955
  A 4.30 4.30 0.0 0 1 50.4247 412.7880
  L 29.7847 412.7520
  A 4.30 4.30 0.0 0 1 25.4922 408.4445
  L 25.5278 388.0245
  A 4.30 4.30 0.0 0 1 29.8353 383.7320
  L 50.4753 383.7680
  A 4.30 4.30 0.0 0 1 54.7678 388.0755
  L 54.7322 408.4955
  Z
  M 46.7497 392.3384
  A 0.60 0.60 0.0 0 0 46.1486 391.7395
  L 34.0887 391.7605
  A 0.60 0.60 0.0 0 0 33.4897 392.3616
  L 33.5103 404.1616
  A 0.60 0.60 0.0 0 0 34.1114 404.7605
  L 46.1713 404.7395
  A 0.60 0.60 0.0 0 0 46.7703 404.1384
  L 46.7497 392.3384
  Z"
/>
<path fill="#000000" d="
  M 72.50 392.69
  Q 72.03 399.85 72.27 407.02
  Q 72.35 409.69 71.74 410.86
  C 70.40 413.47 66.01 413.28 64.77 410.58
  C 63.09 406.88 64.25 393.19 64.29 388.50
  C 64.33 385.01 66.33 383.75 69.71 383.75
  Q 79.01 383.76 88.29 383.74
  C 91.76 383.74 93.79 385.10 93.19 388.78
  Q 92.71 391.73 89.75 391.73
  L 73.50 391.76
  A 1.00 0.99 1.8 0 0 72.50 392.69
  Z"
/>
<path fill="#000000" d="
  M 419.46 391.42
  Q 415.60 387.19 419.93 383.92
  A 1.00 0.99 -63.7 0 1 420.54 383.71
  Q 431.05 383.77 441.52 383.75
  C 444.09 383.75 446.69 384.81 446.71 387.57
  Q 446.79 398.03 446.53 408.50
  Q 446.42 412.85 442.00 412.73
  Q 438.76 412.64 438.76 409.75
  L 438.75 392.75
  A 1.00 1.00 0.0 0 0 437.75 391.75
  L 420.20 391.75
  A 1.01 0.99 68.5 0 1 419.46 391.42
  Z"
/>
<path fill="#000000" d="
  M 485.4722 408.4355
  A 4.35 4.35 0.0 0 1 481.1147 412.7779
  L 460.5747 412.7421
  A 4.35 4.35 0.0 0 1 456.2323 408.3845
  L 456.2678 388.0645
  A 4.35 4.35 0.0 0 1 460.6253 383.7221
  L 481.1653 383.7579
  A 4.35 4.35 0.0 0 1 485.5077 388.1155
  L 485.4722 408.4355
  Z
  M 477.5101 392.4516
  A 0.69 0.69 0.0 0 0 476.8213 391.7604
  L 464.9614 391.7397
  A 0.69 0.69 0.0 0 0 464.2702 392.4285
  L 464.2499 404.0484
  A 0.69 0.69 0.0 0 0 464.9387 404.7396
  L 476.7986 404.7603
  A 0.69 0.69 0.0 0 0 477.4898 404.0715
  L 477.5101 392.4516
  Z"
/>
<rect fill="#000000" x="152.96" y="427.00" width="128.00" height="8.00" rx="3.83"/>
</svg>
